<?xml version="1.0" encoding="utf-8"?>
<!-- Generator: Adobe Illustrator 24.1.1, SVG Export Plug-In . SVG Version: 6.00 Build 0)  -->
<svg version="1.1" id="レイヤー_1" xmlns="http://www.w3.org/2000/svg" xmlns:xlink="http://www.w3.org/1999/xlink" x="0px"
	 y="0px" viewBox="0 0 34 28" style="enable-background:new 0 0 34 28;" xml:space="preserve">
<style type="text/css">
	.st0{fill:#FFFFFF;}
</style>
<g>
	<g>
		<path class="st0" d="M31.7,3.3C29.9,1.6,21.7,0,17,0C12.3,0,4.1,1.6,2.3,3.3c-2.6,2.4-2.3,6-2.3,6l2.7,2.5l6-2.3
			c0.4-0.1,0-3.1-0.3-4.1c-0.1-0.5,1.2-0.9,2.7-1.2c2.8-0.5,9.1-0.5,11.9,0c1.6,0.3,2.9,0.7,2.7,1.2c-0.3,1-0.8,3.9-0.3,4.1l6,2.3
			L34,9.2C34,9.2,34.4,5.6,31.7,3.3z"/>
		<path class="st0" d="M25.1,13.1c-1-0.6-2.3-1.5-2.3-1.9V7.5l0,0h0v0h-1.1V5.9h-3.3v1.6h-2.9V5.9v0l0,0v0h-3.3v1.6h-1.1v3.8
			c0,0.4-1.3,1.2-2.3,1.9c-2.1,1.3-4.6,3-4.6,5.4V28h25.6v-9.5C29.8,16.1,27.2,14.5,25.1,13.1z M26.6,24.8H7.4v-6.3
			c0-0.7,2.4-2.2,3.2-2.8c1.9-1.2,3.7-2.4,3.7-4.5v-0.6h5.3h0v0.6c0,2.1,1.8,3.3,3.7,4.5c0.8,0.5,3.2,2.1,3.2,2.8V24.8L26.6,24.8z"
			/>
		<rect x="20.7" y="16.9" class="st0" width="2.4" height="2.3"/>
		<rect x="15.8" y="16.9" class="st0" width="2.4" height="2.3"/>
		<rect x="10.9" y="16.9" class="st0" width="2.4" height="2.3"/>
		<rect x="20.7" y="20.9" class="st0" width="2.4" height="2.3"/>
		<rect x="15.8" y="20.9" class="st0" width="2.4" height="2.3"/>
		<rect x="10.9" y="20.9" class="st0" width="2.4" height="2.3"/>
	</g>
</g>
</svg>
