<?xml version="1.0" encoding="utf-8"?>
<!-- Generator: Adobe Illustrator 24.1.1, SVG Export Plug-In . SVG Version: 6.00 Build 0)  -->
<svg version="1.1" id="レイヤー_1" xmlns="http://www.w3.org/2000/svg" xmlns:xlink="http://www.w3.org/1999/xlink" x="0px"
	 y="0px" viewBox="0 0 28 24" style="enable-background:new 0 0 28 24;" xml:space="preserve">
<style type="text/css">
	.st0{fill:#e72100;}
</style>
<g>
	<path class="st0" d="M26.7,8.6c0.4,0,0.7,0.1,0.9,0.4C27.9,9.2,28,9.5,28,9.9v4.3c0,0.4-0.1,0.7-0.4,0.9c-0.3,0.2-0.6,0.4-0.9,0.4
		h-0.4v6c0,0.7-0.3,1.3-0.8,1.8S24.4,24,23.6,24H4.4c-0.7,0-1.3-0.2-1.9-0.8s-0.8-1.1-0.8-1.8v-6H1.3c-0.4,0-0.7-0.1-0.9-0.4
		C0.1,14.8,0,14.5,0,14.1V9.9c0-0.4,0.1-0.7,0.4-0.9c0.3-0.2,0.6-0.4,0.9-0.4h3.6C4,7.6,3.5,6.5,3.5,5.1C3.5,3.7,4,2.5,5,1.5
		S7.3,0,8.8,0c1.1,0,2,0.2,2.8,0.7s1.6,1.2,2.5,2.2c0.8-1,1.6-1.7,2.3-2.1c0.9-0.5,1.9-0.8,3-0.8c1.5,0,2.7,0.5,3.7,1.5
		s1.5,2.2,1.5,3.6c0,1.3-0.5,2.5-1.4,3.4H26.7z M8.8,3.4c-0.5,0-0.9,0.2-1.2,0.5S7,4.7,7,5.1S7.2,6,7.5,6.3c0.3,0.3,0.8,0.5,1.2,0.5
		h3.9c-0.6-1.3-1.3-2.3-2.1-2.8C10,3.6,9.4,3.4,8.8,3.4z M11.4,10.3v9.9c0,0.4,0.1,0.7,0.4,0.9s0.6,0.4,0.9,0.4h2.6
		c0.4,0,0.7-0.1,0.9-0.4s0.4-0.6,0.4-0.9v-9.9H11.4z M15.3,6.9h3.9c0.5,0,0.9-0.2,1.2-0.5C20.8,6,21,5.6,21,5.1s-0.2-0.9-0.5-1.2
		s-0.8-0.5-1.2-0.5c-0.6,0-1.2,0.2-1.8,0.6C16.6,4.6,15.9,5.5,15.3,6.9z"/>
</g>
</svg>
