<?xml version="1.0" encoding="utf-8"?>
<!-- Generator: Adobe Illustrator 24.1.1, SVG Export Plug-In . SVG Version: 6.00 Build 0)  -->
<svg version="1.1" id="レイヤー_1" xmlns="http://www.w3.org/2000/svg" xmlns:xlink="http://www.w3.org/1999/xlink" x="0px"
	 y="0px" viewBox="0 0 19 19" style="enable-background:new 0 0 19 19;" xml:space="preserve">
<style type="text/css">
	.st0{fill:#e72100;}
</style>
<g>
	<path class="st0" d="M9.5,0C4.3,0,0,4.3,0,9.5C0,14.7,4.3,19,9.5,19c5.2,0,9.5-4.3,9.5-9.5C19,4.3,14.7,0,9.5,0z M15,13.2
		c-0.1,0.4-1.1,1.8-1.8,1.8h0c-0.2,0-0.5-0.1-1.1-0.3C8.6,13.2,5.8,10.4,4.3,7C4.1,6.5,4,6.1,4,5.9c0-0.8,1.4-1.8,1.8-1.9
		c0.1,0,0.2,0,0.4,0c0.5,0,0.9,0.2,1.1,0.6l0.7,1C8.5,6.1,8.5,6.8,8,7.4C7.9,7.5,7.7,7.7,7.6,7.8c0,0.3,1.1,1.6,1.6,2.1
		c0.4,0.4,1.7,1.5,2.1,1.6c0.1-0.1,0.2-0.3,0.4-0.4c0.3-0.2,0.6-0.4,1-0.4c0.3,0,0.6,0.1,0.9,0.3l1,0.7C14.9,12,15.1,12.6,15,13.2z"
		/>
</g>
</svg>
