<svg xmlns="http://www.w3.org/2000/svg" viewBox="0 0 30 30"><radialGradient id="a" cx="52.856" cy="986.139" r="43.374" gradientTransform="matrix(.9986 -.05235 -.04449 -.849 -8.367 867.225)" gradientUnits="userSpaceOnUse"><stop offset="0" stop-color="#fed576"/><stop offset=".263" stop-color="#f47133"/><stop offset=".609" stop-color="#bc3081"/><stop offset="1" stop-color="#4c63d2"/></radialGradient><path d="M5.2.8c-1 .4-1.8.9-2.7 1.7-.8.8-1.3 1.7-1.7 2.7-.4 1-.6 2-.7 3.6S0 10.9 0 15s0 4.6.1 6.2c.1 1.6.3 2.7.7 3.6.4 1 .9 1.8 1.7 2.7s1.7 1.3 2.7 1.7c1 .4 2 .6 3.6.7s2.1.1 6.2.1 4.6 0 6.2-.1c1.6-.1 2.7-.3 3.6-.7 1-.4 1.8-.9 2.7-1.7.8-.8 1.3-1.7 1.7-2.7.4-1 .6-2 .7-3.6.1-1.6.1-2.1.1-6.2s0-4.6-.1-6.2-.3-2.7-.7-3.6c-.4-1-.9-1.8-1.7-2.7-.8-.8-1.7-1.3-2.7-1.7-1-.4-2-.6-3.6-.7C19.6 0 19.1 0 15 0s-4.6 0-6.2.1C7.2.2 6.1.4 5.2.8zm15.9 2c1.5.1 2.3.3 2.8.5.7.3 1.2.6 1.7 1.1.5.5.8 1 1.1 1.7.2.5.5 1.3.5 2.8.1 1.6.1 2.1.1 6.1s0 4.5-.1 6.1c-.1 1.5-.3 2.3-.5 2.8-.3.7-.6 1.2-1.1 1.7-.5.5-1 .8-1.7 1.1-.5.2-1.3.5-2.8.5-1.6.1-2.1.1-6.1.1s-4.5 0-6.1-.1c-1.5-.1-2.3-.3-2.8-.5-.7-.3-1.2-.6-1.7-1.1s-.8-1-1.1-1.7c-.2-.5-.5-1.3-.5-2.8-.1-1.6-.1-2.1-.1-6.1s0-4.5.1-6.1c.1-1.5.3-2.3.5-2.8.3-.6.6-1.1 1.1-1.7s1-.8 1.7-1.1c.5-.2 1.3-.5 2.8-.5 1.6-.1 2.1-.1 6.1-.1s4.5 0 6.1.1z" fill="url(#a)"/><radialGradient id="b" cx="37.624" cy="769.656" r="22.273" gradientTransform="matrix(.9986 -.05235 -.04449 -.849 4.245 676.68)" gradientUnits="userSpaceOnUse"><stop offset="0" stop-color="#fed576"/><stop offset=".263" stop-color="#f47133"/><stop offset=".609" stop-color="#bc3081"/><stop offset="1" stop-color="#4c63d2"/></radialGradient><path d="M7.3 15c0 4.3 3.5 7.7 7.7 7.7s7.7-3.5 7.7-7.7-3.4-7.7-7.7-7.7-7.7 3.4-7.7 7.7zM20 15c0 2.8-2.2 5-5 5s-5-2.2-5-5 2.2-5 5-5 5 2.2 5 5z" fill="url(#b)"/><circle cx="23" cy="7" r="1.8" fill="#654c9f"/></svg>