<?xml version="1.0" encoding="utf-8"?>
<!-- Generator: Adobe Illustrator 24.1.1, SVG Export Plug-In . SVG Version: 6.00 Build 0)  -->
<svg version="1.1" id="レイヤー_1" xmlns="http://www.w3.org/2000/svg" xmlns:xlink="http://www.w3.org/1999/xlink" x="0px"
	 y="0px" viewBox="0 0 32 34" style="enable-background:new 0 0 32 34;" xml:space="preserve">
<style type="text/css">
	.st0{fill:#FFFFFF;}
</style>
<g>
	<path class="st0" d="M30.7,2.2h-4.8h0V1.1c0-0.6-0.5-1.1-1.1-1.1h-0.4c-0.6,0-1.1,0.5-1.1,1.1v1.2h-6.1h0V1.1
		c0-0.6-0.5-1.1-1.1-1.1h-0.4c-0.6,0-1.1,0.5-1.1,1.1v1.2H8.6h0V1.1C8.6,0.5,8.1,0,7.6,0H7.2C6.6,0,6.1,0.5,6.1,1.1v1.2H1.3
		C0.6,2.2,0,2.8,0,3.6v29.1C0,33.4,0.6,34,1.3,34h29.3c0.7,0,1.3-0.6,1.3-1.3V3.6C32,2.8,31.4,2.2,30.7,2.2z M8.6,5
		C8.8,5.1,8.9,5.2,9,5.3C9.2,5.5,9.4,5.8,9.5,6c0.1,0.3,0.2,0.6,0.2,0.9c0,1.3-1,2.3-2.3,2.3c-1.3,0-2.3-1-2.3-2.3
		c0-0.3,0.1-0.6,0.2-0.9c0.1-0.2,0.3-0.5,0.4-0.7C5.8,5.2,6,5.1,6.1,5v0.4V6v0.6c0,0.7,0.6,1.2,1.3,1.2s1.3-0.6,1.3-1.2V6V5.3V5.1
		L8.6,5z M17.3,5c0.1,0.1,0.3,0.2,0.4,0.3C17.8,5.5,18,5.8,18.1,6c0.1,0.3,0.2,0.6,0.2,0.9c0,1.3-1,2.3-2.3,2.3
		c-1.3,0-2.3-1-2.3-2.3c0-0.3,0.1-0.6,0.2-0.9c0.1-0.2,0.3-0.5,0.4-0.7c0.1-0.1,0.3-0.3,0.4-0.4v0.4V6v0.6c0,0.7,0.6,1.2,1.2,1.2
		c0.7,0,1.3-0.6,1.3-1.2V6V5.3V5.1L17.3,5z M25.9,5c0.2,0.1,0.3,0.2,0.4,0.3c0.2,0.2,0.3,0.4,0.4,0.7c0.1,0.3,0.2,0.6,0.2,0.9
		c0,1.3-1,2.3-2.3,2.3c-1.3,0-2.3-1-2.3-2.3c0-0.3,0.1-0.6,0.2-0.9c0.1-0.2,0.3-0.5,0.4-0.7c0.1-0.1,0.3-0.3,0.4-0.4v0.4V6v0.6
		c0,0.7,0.6,1.2,1.2,1.2c0.7,0,1.3-0.6,1.3-1.2V6V5.3V5.1L25.9,5z M28.2,30.2H3.8V11.2h24.4V30.2z"/>
	<rect x="7.6" y="14.4" class="st0" width="2.9" height="2.8"/>
	<polygon class="st0" points="15.1,14.4 15.1,14.4 15.1,14.4 15.1,14.4 12.3,14.4 12.3,17.2 15.1,17.2 	"/>
	<polygon class="st0" points="16.9,17.2 16.9,17.2 19.7,17.2 19.7,14.4 16.9,14.4 16.9,17.2 	"/>
	<polygon class="st0" points="21.5,17.2 21.5,17.2 24.4,17.2 24.4,14.4 21.5,14.4 21.5,17.2 	"/>
	<rect x="7.6" y="19" class="st0" width="2.9" height="2.8"/>
	<polygon class="st0" points="15.1,19 15.1,19 15.1,19 15.1,19 12.3,19 12.3,21.8 15.1,21.8 	"/>
	<polygon class="st0" points="16.9,21.8 19.7,21.8 19.7,19 16.9,19 16.9,21.8 16.9,21.8 16.9,21.8 	"/>
	<polygon class="st0" points="21.5,21.8 24.4,21.8 24.4,19 21.5,19 21.5,21.8 21.5,21.8 21.5,21.8 	"/>
	<polygon class="st0" points="10.5,23.6 7.6,23.6 7.6,23.6 7.6,23.6 7.6,23.6 7.6,26.4 10.5,26.4 	"/>
	<polygon class="st0" points="15.1,23.6 15.1,23.6 15.1,23.6 15.1,23.6 12.3,23.6 12.3,23.6 12.3,23.6 12.3,23.6 12.3,26.4 
		15.1,26.4 	"/>
	<polygon class="st0" points="16.9,26.4 19.7,26.4 19.7,23.6 16.9,23.6 16.9,23.6 16.9,23.6 16.9,23.6 16.9,26.4 16.9,26.4 
		16.9,26.4 	"/>
	<polygon class="st0" points="21.5,26.4 24.4,26.4 24.4,23.6 21.5,23.6 21.5,23.6 21.5,23.6 21.5,23.6 21.5,26.4 21.5,26.4 
		21.5,26.4 	"/>
</g>
</svg>
