<svg xmlns="http://www.w3.org/2000/svg" viewBox="0 0 19 19"><path d="M12.9 3.7c1.2 0 2.7-.4 4.4-1.2.4-.2.8-.1 1.1.1.4.2.6.6.6 1v9c0 .4-.2.7-.5 1-1.5 1-3 1.5-4.6 1.5-.6 0-1.2-.1-1.9-.2-.4-.1-.9-.2-1.6-.5-.6-.2-1.1-.4-1.4-.4-.5-.1-1-.2-1.4-.2-1.6 0-3 .3-4.3.9v3.5c0 .2-.1.5-.3.6s-.3.2-.6.2h-.6c-.3 0-.5-.1-.6-.3s-.3-.4-.3-.6V3.8C.6 3.6.4 3.3.2 3S0 2.4 0 2.1C0 1.5.2 1 .6.6s1-.6 1.6-.6c.6 0 1 .2 1.4.6s.6.8.6 1.3c0 .3 0 .6-.2.9.8-.3 1.7-.4 2.6-.4.6 0 1.2.1 1.9.2.4.1.9.3 1.6.5.6.2 1.1.3 1.4.4.5.1 1 .2 1.4.2z" fill="#424242"/></svg>