<?xml version="1.0" encoding="utf-8"?>
<!-- Generator: Adobe Illustrator 24.1.1, SVG Export Plug-In . SVG Version: 6.00 Build 0)  -->
<svg version="1.1" id="レイヤー_1" xmlns="http://www.w3.org/2000/svg" xmlns:xlink="http://www.w3.org/1999/xlink" x="0px"
	 y="0px" viewBox="0 0 36 36" style="enable-background:new 0 0 36 36;" xml:space="preserve">
<style type="text/css">
	.st0{fill:#1e4458;}
	.st1{fill:#FFFFFF;}
</style>
<g>
	<path class="st0" d="M18,0C8.1,0,0,8.1,0,18c0,4.7,1.8,9.2,5.1,12.6c3.4,3.5,8,5.4,12.9,5.4c4.9,0,9.4-1.9,12.9-5.4
		C34.2,27.2,36,22.7,36,18C36,8.1,27.9,0,18,0z M7.3,28.9c3-1.9,6.8-3.9,7.1-4h0.2v-3.2c-0.4-0.2-0.7-0.7-0.8-1.2
		c-0.2-0.5-0.3-0.9-0.3-1.1c0,0,0,0,0,0c0,0,0,0,0,0c0,0,0,0,0,0c-1.2,0.4-1.4-1.9-1.5-2.5c-0.1-0.5,0.2-0.9,0.3-1
		c0-0.1-0.1-0.2-0.1-0.4c0,0,0,0,0,0c-0.5-2.1-0.2-2.8,0.7-4.5c1-1.7,3.3-3.4,4.7-3.4c0.1,0,0.2,0,0.3,0c1.7,0.1,2.6,0.9,3.3,2.2
		c0.4,0,1.2,0.6,1.8,1.1c0.2,0.2,0.5,0.5,0.6,0.7c0.4,0.6,0.5,1.5,0.4,2.3c0,0.6-0.1,1.1-0.3,1.5v0c0,0.1-0.1,0.3-0.1,0.4
		c0.2,0.1,0.4,0.5,0.3,1c-0.1,0.6-0.2,2.9-1.5,2.5c0,0,0,0,0,0c-0.1,0.4-0.3,1.8-1.1,2.3v3.2v0l0,0v0h0.2c0.3,0.1,3.6,1.8,6.5,3.6
		c0.2,0.1,0.4,0.3,0.6,0.4c-2.9,2.8-6.6,4.4-10.7,4.4c-3.7,0-7.1-1.3-9.9-3.7C7.8,29.4,7.6,29.1,7.3,28.9z"/>
</g>
<path class="st1" d="M7.3,28.9c3-1.9,6.8-3.9,7.1-4h0.2v-3.2c-0.4-0.2-0.7-0.7-0.8-1.2c-0.2-0.5-0.3-0.9-0.3-1.1c0,0,0,0,0,0
	c0,0,0,0,0,0c0,0,0,0,0,0c-1.2,0.4-1.4-1.9-1.5-2.5c-0.1-0.5,0.2-0.9,0.3-1c0-0.1-0.1-0.2-0.1-0.4c0,0,0,0,0,0
	c-0.5-2.1-0.2-2.8,0.7-4.5c1-1.7,3.3-3.4,4.7-3.4c0.1,0,0.2,0,0.3,0c1.7,0.1,2.6,0.9,3.3,2.2c0.4,0,1.2,0.6,1.8,1.1
	c0.2,0.2,0.5,0.5,0.6,0.7c0.4,0.6,0.5,1.5,0.4,2.3c0,0.6-0.1,1.1-0.3,1.5v0c0,0.1-0.1,0.3-0.1,0.4c0.2,0.1,0.4,0.5,0.3,1
	c-0.1,0.6-0.2,2.9-1.5,2.5c0,0,0,0,0,0c-0.1,0.4-0.3,1.8-1.1,2.3v3.2v0l0,0v0h0.2c0.3,0.1,3.6,1.8,6.5,3.6c0.2,0.1,0.4,0.3,0.6,0.4
	c-2.9,2.8-6.6,4.4-10.7,4.4c-3.7,0-7.1-1.3-9.9-3.7C7.8,29.4,7.6,29.1,7.3,28.9z"/>
</svg>
