<?xml version="1.0" encoding="utf-8"?>
<!-- Generator: Adobe Illustrator 24.1.1, SVG Export Plug-In . SVG Version: 6.00 Build 0)  -->
<svg version="1.1" id="レイヤー_1" xmlns="http://www.w3.org/2000/svg" xmlns:xlink="http://www.w3.org/1999/xlink" x="0px"
	 y="0px" viewBox="0 0 28 28" style="enable-background:new 0 0 28 28;" xml:space="preserve">
<style type="text/css">
	.st0{fill:#FFFFFF;}
</style>
<g>
	<path class="st0" d="M14,28c-2.4,0-4.9-0.6-7.1-1.9l-5.2,1.3c-0.3,0.1-0.7,0-0.9-0.3c-0.2-0.2-0.3-0.6-0.3-0.9L1.9,21
		C-1.3,15.5-0.4,8.6,4.1,4.1l0,0c5.5-5.5,14.3-5.5,19.8,0c5.5,5.5,5.5,14.3,0,19.8C21.2,26.6,17.6,28,14,28z M7.1,24
		c0.2,0,0.4,0.1,0.5,0.2c4.8,3,10.9,2.3,14.9-1.7c4.7-4.7,4.7-12.3,0-17c-4.7-4.7-12.3-4.7-17,0l0,0c-4,4-4.7,10.1-1.7,14.9
		C4,20.6,4,20.9,3.9,21.1l-1,4l4-1C7,24,7,24,7.1,24z"/>
	<path class="st0" d="M14.1,18.3c1.2,0.9,2.4,1.6,3.7,2.1c0.7,0.3,1.1,0.4,1.3,0.4l0,0c0.9,0,2.1-1.7,2.2-2.3
		c0.2-0.7-0.1-1.4-0.6-1.8l-1.2-1c-0.3-0.2-0.7-0.4-1.1-0.4c-0.4,0-0.8,0.2-1.2,0.5c-0.2,0.2-0.4,0.4-0.6,0.6c0,0,0,0,0,0
		c-0.5,0-2.3-1.6-2.8-2.1c-0.5-0.5-2.1-2.3-2.1-2.8c0,0,0,0,0,0c0.2-0.1,0.4-0.4,0.6-0.6c0.6-0.6,0.6-1.6,0.1-2.2l-1-1.2
		c-0.1-0.1-0.2-0.2-0.3-0.3c0,0-0.1-0.1-0.2-0.1C10.9,7.1,10.7,7,10.4,7c-0.1,0-0.1,0-0.2,0c-0.1,0-0.3,0-0.4,0
		C9.3,7.2,7.5,8.3,7.5,9.3c0,0.2,0.2,0.7,0.4,1.3c0.6,1.3,1.3,2.5,2.1,3.7C11.2,15.9,12.6,17.2,14.1,18.3z"/>
</g>
</svg>
