<svg version="1.1" id="レイヤー_1" xmlns="http://www.w3.org/2000/svg" x="0" y="0" viewBox="0 0 176 23" xml:space="preserve"><style>.st0{fill:#fff}</style><path class="st0" d="M1.2 22.2H0V1.1h3.6v17.6c6.8-.8 11.1-4.3 12.8-10.8h3.7c-1.6 7.6-6.9 14-18.9 14.3zM25.2 5.3V1.8c3.3.2 7.3.7 10.8 1.4v3.6c-3.5-.8-7.5-1.3-10.8-1.5zm.3 16.8v-3.5c9-.7 15.1-3.3 16.3-13.4h3.8c-1.2 12-8.4 16.5-20.1 16.9zM52.7 22.5v-3.2c5.7-.8 9.4-2.8 11.8-5.9-3.5-.8-6.9-1.4-10.2-1.8V8.9c-1.4 1.4-3 2.6-4.8 3.4V8.6c2.3-1.4 4.3-4.1 5.4-7.1h16.7v.3c-.3 10.7-4.7 19.3-18.9 20.7zm4.7-17.7c-.7 1.3-1.5 2.5-2.6 3.7 3.8.4 7.7 1 11.5 2 .8-1.7 1.2-3.6 1.5-5.7H57.4zM91.3 22.2h-4.7v-3.3h4c2.1 0 2.7-.8 2.7-2.7V7.9h-7.1c-.4 8-4.9 12.8-10.1 14.5v-3.5c3.5-1.9 6.4-5.5 6.5-11.1h-6.5V4.7h6.5v-4h3.6v4h10.7v11.8c0 3.9-1.7 5.7-5.6 5.7zM102.1 12.2V8.9h21.6v3.3h-21.6zM145.5 17.5l-2.4-2.5s2.1-1.1 3.3-3.2h-5.5v5.6c0 4.8-.2 5.6-7.3 5.6l-1.3-3.4h3.6c1.8 0 1.9-.2 1.9-1.7v-6.1h-10.1v-3H140c-2.4-.7-6.2-1.7-8.5-2.2l2.7-2.2c1.7.4 4.2 1 5.8 1.5 1.6-.8 3.3-2 3.3-2h-13.1V.6h18v2.2c-1.5 1.5-3.5 2.9-5 4 .6.2 1.1.4 1.9.6l-1.4 1.3h6.7v2.6c-2 4.3-4.9 6.2-4.9 6.2zM155.9 22l-2.7-.8c1-3.1 1.2-6.4 1.2-6.4l2.6.5c-.1 0-.3 3.5-1.1 6.7zm6.2-7.1s-.1-.7-.3-1.5c0 0-.6.2-1.3.2V23h-3.1v-9.1c-2 .1-3.8.1-3.8.1l-.3-3h2.1c.6-.6 1.2-1.3 1.7-2-1-1.1-2.2-2.2-3.8-3.3l1.8-2.4c.3.3.6.5.9.8.7-1.1 1.3-2.5 1.9-4.2l2.9 1.1c-1 2.1-1.9 3.7-2.9 4.9.3.3.5.5.7.8 1-1.3 1.9-3.2 1.9-3.2l2.7 1.4s-2.1 3.5-4.4 6.1c.8 0 1.6-.1 2.2-.2l-.3-1.2 2.2-.9c1 2.6 1.5 5.3 1.5 5.3l-2.3.9zm.1 6.6s-.3-2.8-1.1-5.8l2.5-.8c.9 2.8 1.4 5.7 1.4 5.7l-2.8.9zm6.5 1.5l-1.3-3.4c5.1 0 5.3-.2 5.3-7V5.3h-5.1c-.8 1.6-1.7 3.1-2.8 4.2l-1.9-2.8c1.7-2 2.6-4.1 3.1-6.6l3.2.5c-.1.6-.2 1.1-.4 1.7h7.3v8c-.1 10.2-.4 12.7-7.4 12.7zm-.4-6.5c-1.1-3.4-2.9-6.6-2.9-6.6l2.7-1.5s1.9 3.2 3.1 6.6l-2.9 1.5z"/></svg>