<?xml version="1.0" encoding="utf-8"?>
<!-- Generator: Adobe Illustrator 24.1.1, SVG Export Plug-In . SVG Version: 6.00 Build 0)  -->
<svg version="1.1" id="レイヤー_1" xmlns="http://www.w3.org/2000/svg" xmlns:xlink="http://www.w3.org/1999/xlink" x="0px"
	 y="0px" viewBox="0 0 48 32" width="48" height="32" style="enable-background:new 0 0 48 32;" xml:space="preserve">
<style type="text/css">
	.st0{fill:#FF3830;}
</style>
<g>
	<g>
		<path class="st0" d="M40.3,29.8v-23h3V0H4.7v6.8v0l0,0v0h3v22.8v0.1H6.1l-0.3,0c0-0.1,0-0.2,0-0.3V21c0-0.9-0.7-1.6-1.6-1.6H3.8
			c-0.9,0-1.6,0.7-1.6,1.6v8.5c0,0.1,0,0.2,0,0.3c0,0,0,0,0,0H0V32v0l0,0v0h48v-2.2H40.3z M36.9,29.7h-6.6V19.2h6.6h0V29.7
			L36.9,29.7L36.9,29.7z M34.2,15.1L34.2,15.1l-4.2,0v-4.9h4.2V15.1z M26.1,24.7h-4.2v-4.9h4.2V24.7L26.1,24.7z M26.1,15.1h-4.2
			v-4.9h4.2V15.1L26.1,15.1z M17.9,24.7h-4.2v-4.9h4.2V24.7L17.9,24.7z M17.9,15.1h-4.2v-4.9h4.2V15.1L17.9,15.1z"/>
	</g>
	<g>
		<ellipse class="st0" cx="35.1" cy="24.4" rx="0.8" ry="0.8"/>
	</g>
</g>
</svg>
