<?xml version="1.0" encoding="utf-8"?>
<!-- Generator: Adobe Illustrator 24.1.1, SVG Export Plug-In . SVG Version: 6.00 Build 0)  -->
<svg version="1.1" id="レイヤー_1" xmlns="http://www.w3.org/2000/svg" xmlns:xlink="http://www.w3.org/1999/xlink" x="0px"
	 y="0px" viewBox="0 0 28 28" style="enable-background:new 0 0 28 28;" xml:space="preserve">
<style type="text/css">
	.st0{fill:#FFFFFF;}
</style>
<g>
	<path class="st0" d="M19.9,16.6l-1.1-0.9c-0.3-0.2-0.7-0.4-1.1-0.4c-0.4,0-0.9,0.2-1.2,0.5c-0.2,0.2-0.4,0.4-0.5,0.5
		c-0.4-0.1-2-1.3-2.5-1.9c-0.6-0.6-1.8-2.1-1.9-2.5c0.2-0.1,0.4-0.4,0.5-0.5c0.6-0.6,0.6-1.6,0.1-2.2l-0.9-1.1
		c-0.3-0.4-0.8-0.7-1.4-0.7c-0.1,0-0.3,0-0.4,0.1C9.1,7.6,7.4,8.7,7.4,9.7c0,0.2,0.1,0.7,0.4,1.3c1.8,4.1,5.1,7.4,9.2,9.2
		c0.6,0.3,1,0.4,1.3,0.4l0,0c0.9,0,2.1-1.7,2.2-2.2C20.7,17.7,20.5,17,19.9,16.6z"/>
	<path class="st0" d="M14,0C6.3,0,0,6.3,0,14c0,7.7,6.3,14,14,14c7.7,0,14-6.3,14-14C28,6.3,21.7,0,14,0z M14,24.5
		C8.2,24.5,3.5,19.8,3.5,14C3.5,8.2,8.2,3.5,14,3.5c5.8,0,10.5,4.7,10.5,10.5C24.5,19.8,19.8,24.5,14,24.5z"/>
</g>
</svg>
