<?xml version="1.0" encoding="utf-8"?>
<!-- Generator: Adobe Illustrator 24.1.1, SVG Export Plug-In . SVG Version: 6.00 Build 0)  -->
<svg version="1.1" id="レイヤー_1" xmlns="http://www.w3.org/2000/svg" xmlns:xlink="http://www.w3.org/1999/xlink" x="0px"
	 y="0px" viewBox="0 0 34 34" style="enable-background:new 0 0 34 34;" xml:space="preserve">
<style type="text/css">
	.st0{fill:#542C0B;}
</style>
<g>
	<path class="st0" d="M33.9,8.5l-5.1-5.1l-3.2-3.2C25.4,0,25.1,0,25,0.1L3.5,21.6c0,0-0.1,0.1-0.1,0.1l-0.5,0.5
		c-0.3,0.3-0.5,0.6-0.6,0.9l-2.2,7.5c-0.3,0.9,0,1.9,0.6,2.6c0.7,0.7,1.6,0.9,2.6,0.7l7.5-2.2c0.4-0.1,0.7-0.3,1-0.6L33.9,9
		C34,8.9,34,8.6,33.9,8.5z M2.1,31.4l0.4-1.2L3,30.7l0.2,0.2l-0.6,0.3L2.1,31.4z M4.7,31.2l-1.9-1.8l1.6-5.5L5,23.2v0l0.3-0.3
		l-0.1,1.9l0,0.2h0l0,0L7,24.9l0.2,0l0,0.4l-0.1,1.5l0,0.2h0l0,0l1.7-0.1l0.3,0l0,0l0,0.4L9,28.7l0,0.2l0,0l0,0l1.7-0.1l0.2,0l0.2,0
		L10.8,29l-0.6,0.6L4.7,31.2z M8.9,22.1L25.6,5.3l0.5,0.5L9.3,22.5L8.9,22.1z M28.2,7.9l0.5,0.5L12,25.1l-0.5-0.5L28.2,7.9z"/>
</g>
</svg>
