<svg xmlns="http://www.w3.org/2000/svg" viewBox="0 0 32 28"><path d="M32 12.3c0 .5-.2 1-.5 1.5s-.8.8-1.3 1V21c0 1-.3 1.8-1 2.5s-1.5 1-2.5 1l-.5-.4c-1.5-1.3-2.7-2.2-3.6-2.8-1.5-1.1-2.9-1.9-4.4-2.5-1.7-.7-3.6-1.1-5.5-1.2-.9.3-1.5.9-1.8 1.7-.3.8-.3 1.6.2 2.2.1.2.2.4.1.7-.3.6-.3 1.2 0 1.8.2.5.6 1 1.1 1.5.4.3.5.7.4 1.2-.1.5-.4.8-.8 1-.7.3-1.6.4-2.7.4s-1.9-.3-2.5-.6c-.3-.1-.4-.4-.6-.7l-.3-.8c-.6-1.7-.9-3-1.1-3.9-.2-1.5-.1-3 .3-4.4H2.7c-.7 0-1.4-.3-1.9-.8-.5-.7-.8-1.3-.8-2V9.6c0-.7.3-1.3.8-1.9S1.9 7 2.7 7h8.9c2.1 0 4.2-.3 6.1-1 1.6-.6 3.2-1.4 4.7-2.5 1-.7 2.2-1.7 3.8-3l.5-.5c1 0 1.8.3 2.5 1s1 1.5 1 2.5v6.3c.5.2.9.5 1.3 1 .3.4.5.9.5 1.5zm-5.3 7.6V4.6c-1.9 1.5-3.6 2.7-5.3 3.6-2.3 1.2-4.7 1.9-7.2 2.2v3.8c2.5.3 4.9 1 7.2 2.2 1.7.8 3.4 2 5.3 3.5z" fill="#e72100"/></svg>