<?xml version="1.0" encoding="utf-8"?>
<!-- Generator: Adobe Illustrator 24.1.1, SVG Export Plug-In . SVG Version: 6.00 Build 0)  -->
<svg version="1.1" id="レイヤー_1" xmlns="http://www.w3.org/2000/svg" xmlns:xlink="http://www.w3.org/1999/xlink" x="0px"
	 y="0px" viewBox="0 0 50 28" style="enable-background:new 0 0 50 28;" xml:space="preserve">
<style type="text/css">
	.st0{fill:#FF3830;}
</style>
<g>
	<g>
		<path class="st0" d="M45.4,0H20.8c-2.8,0-5.8,1.2-8.1,3.2c0,0,0,0,0,0c-0.2,0.2-0.4,0.4-0.6,0.6c0,0-0.1,0.1-0.1,0.1
			c-0.2,0.2-0.4,0.4-0.6,0.7c0,0,0,0,0,0c-0.8,1-1.5,2.2-2,3.5C9.2,8.3,9.1,8.6,9,8.8c0,0,0,0.1,0,0.1C8.8,9.2,8.7,9.4,8.6,9.6
			c0,0.1-0.1,0.1-0.1,0.2c-2.1,3.3-6.2,4.3-7.7,5.9c-0.4,0.4-0.6,1-0.7,1.7c-0.7,3.6,2.2,6.9,5.9,6.9h2.4c0-3.3,2.7-6,6.1-6
			c3.4,0,6.1,2.7,6.1,6h13.1c0-3.3,2.7-6,6.1-6c3.3,0,6,2.6,6.1,5.9c0,0,0,0.1,0,0.1h0c0,0,0,0,0,0c2.4-0.2,4.2-2.2,4.2-4.6V4.6
			C50,2,47.9,0,45.4,0z M27.5,4.2h17.3c0.5,0,1,0.4,1,1v7.4H27.5V4.2z M24.2,12.6H12.7c-0.2-0.6-0.2-1.3,0.1-2
			c0.2-0.4,0.3-0.8,0.5-1.1C14.5,6,18,4.2,20.8,4.2h3.4L24.2,12.6L24.2,12.6z"/>
	</g>
	<g>
		<path class="st0" d="M14.5,20.5c-2.1,0-3.8,1.7-3.8,3.8c0,2.1,1.7,3.8,3.8,3.8c2.1,0,3.8-1.7,3.8-3.8
			C18.3,22.2,16.6,20.5,14.5,20.5z"/>
	</g>
	<g>
		<path class="st0" d="M39.7,20.5c-2.1,0-3.8,1.7-3.8,3.8c0,2.1,1.7,3.8,3.8,3.8c2.1,0,3.8-1.7,3.8-3.8
			C43.5,22.2,41.8,20.5,39.7,20.5z"/>
	</g>
</g>
</svg>
