<svg xmlns="http://www.w3.org/2000/svg" viewBox="0 0 30 30"><path d="M23.5 30h-17C2.9 30 0 27.1 0 23.5v-17C0 2.9 2.9 0 6.5 0h17C27.1 0 30 2.9 30 6.5v17c0 3.6-2.9 6.5-6.5 6.5z" fill="#00b900"/><path d="M15 5.3c-5.4 0-9.8 4.4-9.8 9.8s4.4 9.8 9.8 9.8c1 0 2.1-.2 3-.5l.6-.2c.2-.1.3-.3.3-.5l-.6-1.7c-.1-.2-.3-.3-.5-.3l-.6.2c-.7.2-1.5.4-2.2.4-3.9 0-7.2-3.2-7.2-7.2S11 7.9 15 7.9c3.9 0 7.2 3.2 7.2 7.2 0 .8-.2 1.7-.5 2.5-.2.6-.7 1.1-1.1 1.1-.6 0-1-.4-1-1v-6.9c0-.2-.2-.4-.4-.4h-1.8c-.2 0-.4.2-.4.4v.2l-.1-.1c-.7-.4-1.5-.6-2.3-.6-2.6 0-4.8 2.1-4.8 4.8s2.1 4.8 4.8 4.8c.9 0 1.8-.3 2.5-.7l.1-.1v.1c.6 1.3 1.9 2.2 3.3 2.2 1.5 0 3-1.2 3.6-2.9.4-1.1.6-2.3.6-3.4 0-5.5-4.3-9.8-9.7-9.8zm2 9.7c0 1.3-1.1 2.4-2.4 2.4s-2.4-1.1-2.4-2.4 1.1-2.4 2.4-2.4S17 13.7 17 15z" fill="#fff"/></svg>