<?xml version="1.0" encoding="utf-8"?>
<!-- Generator: Adobe Illustrator 24.1.1, SVG Export Plug-In . SVG Version: 6.00 Build 0)  -->
<svg version="1.1" id="レイヤー_1" xmlns="http://www.w3.org/2000/svg" xmlns:xlink="http://www.w3.org/1999/xlink" x="0px"
	 y="0px" viewBox="0 0 28 28" style="enable-background:new 0 0 28 28;" xml:space="preserve">
<style type="text/css">
	.st0{fill:#e72100;}
</style>
<g>
	<path class="st0" d="M14,28c-2.4,0-4.8-0.6-7.1-1.9l-5.2,1.3c-0.3,0.1-0.7,0-0.9-0.3c-0.2-0.2-0.3-0.6-0.3-0.9L1.9,21
		C-1.3,15.5-0.4,8.6,4.1,4.1l0,0c5.5-5.5,14.3-5.5,19.8,0C26.5,6.7,28,10.3,28,14c0,3.7-1.5,7.3-4.1,9.9C21.2,26.6,17.6,28,14,28z
		 M7.1,24c0.2,0,0.4,0.1,0.5,0.2c4.8,3,10.9,2.3,14.8-1.7c2.3-2.3,3.5-5.3,3.5-8.5c0-3.2-1.2-6.2-3.5-8.5c-4.7-4.7-12.3-4.7-17,0
		c-4,4-4.7,10.1-1.7,14.9C4,20.6,4,20.9,3.9,21.1l-1,4l4-1C7,24,7,24,7.1,24z"/>
	<g>
		<path class="st0" d="M17,14.8c0.1-0.1,0.1-0.2,0.1-0.3c0.4-0.8,0.6-1.6,0.6-2.5c0-3-2.5-5.5-5.5-5.5c-0.9,0-1.8,0.2-2.5,0.6
			C8.8,7.6,8,8.5,7.4,9.4C7,10.2,6.8,11.1,6.8,12c0,3,2.5,5.5,5.5,5.5c0.9,0,1.8-0.2,2.5-0.6c0.1,0,0.2-0.1,0.3-0.1l4.1,4.1l1.9-1.9
			L17,14.8z M13.6,15.2c-0.1,0-0.2,0.1-0.3,0.1c-0.3,0.1-0.6,0.1-1,0.1c-1.9,0-3.5-1.6-3.5-3.5c0-0.3,0.1-0.7,0.1-1
			c0-0.1,0.1-0.2,0.1-0.3c0.4-0.9,1.1-1.6,1.9-1.9c0.1,0,0.2-0.1,0.3-0.1c0.3-0.1,0.6-0.1,1-0.1c1.9,0,3.5,1.6,3.5,3.5
			c0,0.3-0.1,0.7-0.1,1c0,0.1-0.1,0.2-0.1,0.3C15.2,14.2,14.5,14.9,13.6,15.2z"/>
		<path class="st0" d="M12.4,9.6c-0.4,0-0.8,0.1-1.2,0.3c-0.3,0.1-0.2,0.5,0.1,0.5c0,0,0,0,0,0c1.4,0,2.7,0.9,3.1,2.2
			c0,0.1,0.1,0.2,0.2,0.2c0,0,0,0,0,0c0,0,0,0,0,0c0,0,0.1,0,0.1,0c0,0,0,0,0,0c0,0,0.1,0,0.1,0c0,0,0,0,0,0c0,0,0,0,0.1-0.1
			c0,0,0,0,0,0c0,0,0-0.1,0-0.1c0-0.1,0-0.2,0-0.3C15,10.7,13.8,9.6,12.4,9.6z"/>
	</g>
</g>
</svg>
