<?xml version="1.0" encoding="utf-8"?>
<!-- Generator: Adobe Illustrator 24.3.0, SVG Export Plug-In . SVG Version: 6.00 Build 0)  -->
<svg version="1.1" id="レイヤー_1" xmlns="http://www.w3.org/2000/svg" xmlns:xlink="http://www.w3.org/1999/xlink" x="0px"
	 y="0px" viewBox="0 0 338.3 33" style="enable-background:new 0 0 338.3 33;" xml:space="preserve">
<style type="text/css">
	.st0{fill:#D0D0D0;}
</style>
<g>
	<path class="st0" d="M3.3,1.6h8.2c1.1,0,2.2,0.1,3.3,0.3c1,0.2,1.9,0.6,2.7,1.1c0.8,0.5,1.3,1.2,1.7,2.1c0.4,0.9,0.5,2,0.3,3.3
		c-0.1,0.8-0.3,1.6-0.7,2.4c-0.3,0.7-0.8,1.4-1.3,1.9c-0.5,0.6-1.2,1-1.9,1.4c-0.7,0.4-1.6,0.6-2.4,0.7l4.9,10.5h-5.1l-4.1-10H5.6
		l-1.4,10H0L3.3,1.6z M9.4,11.7c0.6,0,1.2,0,1.8-0.1c0.6-0.1,1.2-0.2,1.7-0.4c0.5-0.2,1-0.5,1.4-1c0.4-0.4,0.6-1,0.7-1.8
		c0.1-0.7,0-1.3-0.2-1.7c-0.2-0.4-0.6-0.7-1-1c-0.4-0.2-0.9-0.4-1.5-0.4c-0.6-0.1-1.1-0.1-1.6-0.1H7l-0.9,6.4H9.4z"/>
	<path class="st0" d="M24.8,18.7c0,0.6,0.1,1.1,0.3,1.6c0.2,0.5,0.5,0.9,0.8,1.2c0.3,0.3,0.7,0.6,1.2,0.8c0.5,0.2,1,0.3,1.5,0.3
		c1,0,1.9-0.2,2.6-0.6c0.7-0.4,1.4-0.9,2-1.6l2.6,2.2c-1.1,1.2-2.3,2-3.5,2.5c-1.2,0.5-2.5,0.7-3.8,0.7c-1.2,0-2.3-0.2-3.3-0.6
		c-1-0.4-1.9-1-2.5-1.7c-0.7-0.7-1.2-1.6-1.5-2.7c-0.3-1-0.4-2.2-0.2-3.5c0.2-1.3,0.6-2.4,1.2-3.5c0.6-1,1.4-1.9,2.2-2.7
		c0.9-0.7,1.9-1.3,3-1.7C28.6,9,29.8,8.8,31,8.8c2.3,0,4,0.8,5.1,2.3c1.2,1.5,1.6,3.7,1.2,6.5l-0.2,1.1H24.8z M33.5,15.7
		c0.2-1.2-0.1-2.1-0.7-2.8c-0.6-0.7-1.6-1-2.8-1c-1.2,0-2.2,0.3-3,1c-0.8,0.7-1.4,1.6-1.7,2.8H33.5z"/>
	<path class="st0" d="M52.5,14.1c-0.4-0.5-0.8-0.9-1.3-1.2c-0.5-0.3-1-0.4-1.5-0.4c-0.7,0-1.4,0.1-2,0.4c-0.6,0.3-1.2,0.6-1.6,1.1
		c-0.5,0.4-0.9,1-1.2,1.5c-0.3,0.6-0.5,1.2-0.6,1.8c-0.1,0.6-0.1,1.2,0.1,1.8c0.1,0.6,0.4,1.1,0.7,1.5c0.3,0.4,0.8,0.8,1.3,1.1
		c0.5,0.3,1.2,0.4,1.9,0.4c0.6,0,1.2-0.1,1.8-0.4c0.6-0.3,1.1-0.6,1.5-1.1l2.3,2.9c-0.5,0.4-1,0.7-1.5,1c-0.6,0.3-1.1,0.5-1.7,0.7
		c-0.6,0.2-1.1,0.3-1.6,0.4c-0.5,0.1-0.9,0.1-1.3,0.1c-1.2,0-2.3-0.2-3.3-0.6c-1-0.4-1.9-1-2.5-1.7c-0.7-0.7-1.2-1.6-1.5-2.7
		c-0.3-1-0.4-2.2-0.2-3.5c0.2-1.3,0.6-2.4,1.2-3.5c0.6-1,1.4-1.9,2.2-2.7c0.9-0.7,1.9-1.3,3-1.7C47.8,9,49,8.8,50.2,8.8
		c1,0,2,0.2,3,0.6c1,0.4,1.8,1,2.4,1.9L52.5,14.1z"/>
	<path class="st0" d="M56.4,17.3c0.2-1.3,0.6-2.4,1.2-3.5c0.6-1,1.4-1.9,2.2-2.7c0.9-0.7,1.9-1.3,3-1.7C64,9,65.1,8.8,66.3,8.8
		c1.2,0,2.3,0.2,3.3,0.6c1,0.4,1.8,1,2.5,1.7c0.7,0.7,1.2,1.6,1.5,2.7c0.3,1,0.4,2.2,0.2,3.5c-0.2,1.3-0.6,2.4-1.2,3.5
		c-0.6,1-1.3,1.9-2.2,2.7c-0.9,0.7-1.9,1.3-3,1.7c-1.1,0.4-2.3,0.6-3.5,0.6c-1.2,0-2.3-0.2-3.3-0.6c-1-0.4-1.9-1-2.5-1.7
		c-0.7-0.7-1.2-1.6-1.5-2.7C56.3,19.7,56.2,18.6,56.4,17.3z M60.4,17.3c-0.1,0.6-0.1,1.2,0.1,1.8c0.1,0.6,0.4,1.1,0.7,1.5
		c0.3,0.4,0.8,0.8,1.3,1.1c0.5,0.3,1.2,0.4,1.9,0.4c0.7,0,1.4-0.1,2-0.4c0.6-0.3,1.2-0.6,1.6-1.1c0.5-0.4,0.8-1,1.1-1.5
		c0.3-0.6,0.5-1.2,0.6-1.8c0.1-0.6,0.1-1.2-0.1-1.8c-0.1-0.6-0.4-1.1-0.7-1.5c-0.3-0.4-0.8-0.8-1.3-1.1c-0.5-0.3-1.2-0.4-1.9-0.4
		c-0.7,0-1.4,0.1-2,0.4c-0.6,0.3-1.2,0.6-1.6,1.1c-0.5,0.4-0.9,1-1.2,1.5C60.7,16.1,60.5,16.7,60.4,17.3z"/>
	<path class="st0" d="M78.6,9.2h3.8l-0.4,2.5h0.1c0.5-0.8,1.1-1.4,2-2c0.9-0.6,2-0.9,3.3-0.9c2.5,0,4.1,1,4.6,3
		c0.7-1,1.6-1.8,2.5-2.3s2-0.7,3.2-0.7c1.1,0,1.9,0.2,2.6,0.5c0.7,0.4,1.2,0.8,1.6,1.5c0.4,0.6,0.6,1.4,0.7,2.2
		c0.1,0.8,0.1,1.7-0.1,2.7l-1.3,9.6h-4l1.3-9.1c0.1-0.5,0.1-1,0.1-1.4c0-0.5-0.1-0.9-0.3-1.2c-0.2-0.3-0.4-0.6-0.8-0.8
		c-0.4-0.2-0.8-0.3-1.4-0.3c-0.6,0-1.2,0.1-1.6,0.4c-0.5,0.2-0.9,0.5-1.2,0.9c-0.3,0.4-0.6,0.8-0.8,1.3c-0.2,0.5-0.3,1-0.4,1.5
		l-1.2,8.7h-4l1.3-9.6c0.1-1,0-1.8-0.3-2.4c-0.3-0.6-1-0.9-2-0.9c-0.7,0-1.3,0.1-1.7,0.3c-0.5,0.2-0.9,0.5-1.3,0.9
		c-0.3,0.4-0.6,0.8-0.8,1.3c-0.2,0.5-0.4,1-0.4,1.5l-1.2,8.8h-4L78.6,9.2z"/>
	<path class="st0" d="M107.7,9.2h3.8l-0.4,2.5h0.1c0.5-0.8,1.1-1.4,2-2c0.9-0.6,2-0.9,3.3-0.9c2.5,0,4.1,1,4.6,3
		c0.7-1,1.6-1.8,2.5-2.3c0.9-0.5,2-0.7,3.2-0.7c1.1,0,1.9,0.2,2.6,0.5c0.7,0.4,1.2,0.8,1.6,1.5c0.4,0.6,0.6,1.4,0.7,2.2
		c0.1,0.8,0.1,1.7-0.1,2.7l-1.3,9.6h-4l1.3-9.1c0.1-0.5,0.1-1,0.1-1.4c0-0.5-0.1-0.9-0.3-1.2c-0.2-0.3-0.4-0.6-0.8-0.8
		c-0.4-0.2-0.8-0.3-1.4-0.3c-0.6,0-1.2,0.1-1.6,0.4c-0.5,0.2-0.9,0.5-1.2,0.9c-0.3,0.4-0.6,0.8-0.8,1.3c-0.2,0.5-0.3,1-0.4,1.5
		l-1.2,8.7h-4l1.3-9.6c0.1-1,0-1.8-0.3-2.4c-0.3-0.6-1-0.9-2-0.9c-0.7,0-1.3,0.1-1.7,0.3c-0.5,0.2-0.9,0.5-1.3,0.9
		c-0.3,0.4-0.6,0.8-0.8,1.3c-0.2,0.5-0.4,1-0.4,1.5l-1.2,8.8h-4L107.7,9.2z"/>
	<path class="st0" d="M138.9,18.7c0,0.6,0.1,1.1,0.3,1.6c0.2,0.5,0.5,0.9,0.8,1.2c0.3,0.3,0.7,0.6,1.2,0.8c0.5,0.2,1,0.3,1.5,0.3
		c1,0,1.9-0.2,2.6-0.6c0.7-0.4,1.4-0.9,2-1.6l2.6,2.2c-1.1,1.2-2.3,2-3.5,2.5c-1.2,0.5-2.5,0.7-3.8,0.7c-1.2,0-2.3-0.2-3.3-0.6
		c-1-0.4-1.9-1-2.5-1.7c-0.7-0.7-1.2-1.6-1.5-2.7c-0.3-1-0.4-2.2-0.2-3.5c0.2-1.3,0.6-2.4,1.2-3.5c0.6-1,1.4-1.9,2.2-2.7
		c0.9-0.7,1.9-1.3,3-1.7c1.1-0.4,2.3-0.6,3.5-0.6c2.3,0,4,0.8,5.1,2.3s1.6,3.7,1.2,6.5l-0.2,1.1H138.9z M147.6,15.7
		c0.2-1.2-0.1-2.1-0.7-2.8c-0.6-0.7-1.6-1-2.8-1c-1.2,0-2.2,0.3-3,1c-0.8,0.7-1.4,1.6-1.7,2.8H147.6z"/>
	<path class="st0" d="M156.3,9.2h3.8l-0.4,2.6h0.1c0.5-0.8,1.2-1.5,2-2.1c0.9-0.6,2-0.9,3.3-0.9c1.1,0,2,0.2,2.7,0.5
		s1.2,0.8,1.6,1.4c0.4,0.6,0.6,1.3,0.7,2c0.1,0.8,0.1,1.6,0,2.4l-1.4,10.2h-4l1.1-8.1c0.1-0.4,0.1-0.9,0.1-1.5c0-0.5,0-1.1-0.2-1.5
		c-0.1-0.5-0.4-0.9-0.7-1.2c-0.4-0.3-0.9-0.5-1.6-0.5c-0.7,0-1.3,0.1-1.7,0.3c-0.5,0.2-0.9,0.5-1.3,0.9c-0.3,0.4-0.6,0.8-0.8,1.3
		c-0.2,0.5-0.4,1-0.4,1.5l-1.2,8.8h-4L156.3,9.2z"/>
	<path class="st0" d="M186.3,22.9L186.3,22.9c-0.8,1-1.7,1.7-2.7,2.1c-1,0.4-2.1,0.7-3.3,0.7c-1.3,0-2.3-0.2-3.3-0.7
		c-0.9-0.4-1.7-1-2.2-1.8c-0.6-0.8-1-1.7-1.2-2.7c-0.2-1-0.2-2.1-0.1-3.3c0.2-1.2,0.5-2.3,1-3.3c0.5-1,1.2-1.9,2-2.7
		c0.8-0.8,1.7-1.4,2.7-1.8c1-0.4,2.1-0.7,3.2-0.7c0.8,0,1.4,0.1,2,0.2c0.6,0.2,1,0.4,1.4,0.6c0.4,0.2,0.7,0.5,1,0.8
		c0.3,0.3,0.5,0.6,0.7,0.8h0.1L189.4,0h4l-3.6,25.3H186L186.3,22.9z M177.6,17.3c-0.1,0.6-0.1,1.2,0.1,1.8c0.1,0.6,0.4,1.1,0.7,1.5
		c0.3,0.4,0.8,0.8,1.3,1.1c0.5,0.3,1.2,0.4,1.9,0.4c0.7,0,1.4-0.1,2-0.4c0.6-0.3,1.2-0.6,1.6-1.1c0.5-0.4,0.8-1,1.1-1.5
		c0.3-0.6,0.5-1.2,0.6-1.8c0.1-0.6,0.1-1.2-0.1-1.8c-0.1-0.6-0.4-1.1-0.7-1.5c-0.3-0.4-0.8-0.8-1.3-1.1c-0.5-0.3-1.2-0.4-1.9-0.4
		c-0.7,0-1.4,0.1-2,0.4c-0.6,0.3-1.2,0.6-1.6,1.1c-0.5,0.4-0.9,1-1.2,1.5C177.9,16.1,177.7,16.7,177.6,17.3z"/>
	<path class="st0" d="M198.5,18.7c0,0.6,0.1,1.1,0.3,1.6c0.2,0.5,0.5,0.9,0.8,1.2c0.3,0.3,0.7,0.6,1.2,0.8c0.5,0.2,1,0.3,1.5,0.3
		c1,0,1.9-0.2,2.6-0.6c0.7-0.4,1.4-0.9,2-1.6l2.6,2.2c-1.1,1.2-2.3,2-3.5,2.5c-1.2,0.5-2.5,0.7-3.8,0.7c-1.2,0-2.3-0.2-3.3-0.6
		c-1-0.4-1.9-1-2.5-1.7c-0.7-0.7-1.2-1.6-1.5-2.7c-0.3-1-0.4-2.2-0.2-3.5c0.2-1.3,0.6-2.4,1.2-3.5c0.6-1,1.4-1.9,2.2-2.7
		c0.9-0.7,1.9-1.3,3-1.7c1.1-0.4,2.3-0.6,3.5-0.6c2.3,0,4,0.8,5.1,2.3c1.2,1.5,1.6,3.7,1.2,6.5l-0.2,1.1H198.5z M207.2,15.7
		c0.2-1.2-0.1-2.1-0.7-2.8c-0.6-0.7-1.6-1-2.8-1c-1.2,0-2.2,0.3-3,1c-0.8,0.7-1.4,1.6-1.7,2.8H207.2z"/>
	<path class="st0" d="M226.7,22.9L226.7,22.9c-0.8,1-1.7,1.7-2.7,2.1c-1,0.4-2.1,0.7-3.3,0.7c-1.3,0-2.3-0.2-3.2-0.7
		c-0.9-0.4-1.7-1-2.2-1.8c-0.6-0.8-1-1.7-1.2-2.7c-0.2-1-0.2-2.1-0.1-3.3c0.2-1.2,0.5-2.3,1-3.3c0.5-1,1.2-1.9,2-2.7
		c0.8-0.8,1.7-1.4,2.7-1.8c1-0.4,2.1-0.7,3.2-0.7c0.8,0,1.4,0.1,2,0.2c0.6,0.2,1,0.4,1.4,0.6c0.4,0.2,0.7,0.5,1,0.8
		c0.3,0.3,0.5,0.6,0.7,0.8h0.1L229.7,0h4l-3.6,25.3h-3.8L226.7,22.9z M217.9,17.3c-0.1,0.6-0.1,1.2,0.1,1.8c0.1,0.6,0.4,1.1,0.7,1.5
		c0.3,0.4,0.8,0.8,1.3,1.1c0.5,0.3,1.2,0.4,1.9,0.4c0.7,0,1.4-0.1,2-0.4c0.6-0.3,1.2-0.6,1.6-1.1c0.5-0.4,0.8-1,1.1-1.5
		c0.3-0.6,0.5-1.2,0.6-1.8c0.1-0.6,0.1-1.2-0.1-1.8c-0.1-0.6-0.4-1.1-0.7-1.5c-0.3-0.4-0.8-0.8-1.3-1.1c-0.5-0.3-1.2-0.4-1.9-0.4
		c-0.7,0-1.4,0.1-2,0.4c-0.6,0.3-1.2,0.6-1.6,1.1c-0.5,0.4-0.9,1-1.2,1.5C218.2,16.1,218,16.7,217.9,17.3z"/>
	<path class="st0" d="M248.2,0h4l-3.6,25.3h-4L248.2,0z"/>
	<path class="st0" d="M255.7,9.2h4l-2.2,16.1h-4L255.7,9.2z M255.9,3.8c0.1-0.6,0.4-1.2,1-1.7c0.5-0.5,1.2-0.7,1.9-0.7
		c0.7,0,1.3,0.2,1.8,0.7c0.4,0.5,0.6,1,0.5,1.7c-0.1,0.7-0.4,1.3-1,1.7c-0.6,0.5-1.2,0.7-1.9,0.7s-1.3-0.2-1.7-0.7
		C256,5,255.8,4.4,255.9,3.8z"/>
	<path class="st0" d="M264.3,9.2h3.8l-0.4,2.6h0.1c0.5-0.8,1.2-1.5,2-2.1c0.9-0.6,2-0.9,3.3-0.9c1.1,0,2,0.2,2.7,0.5
		c0.7,0.4,1.2,0.8,1.6,1.4c0.4,0.6,0.6,1.3,0.7,2c0.1,0.8,0.1,1.6,0,2.4l-1.4,10.2h-4l1.1-8.1c0.1-0.4,0.1-0.9,0.1-1.5
		c0-0.5,0-1.1-0.2-1.5c-0.1-0.5-0.4-0.9-0.7-1.2c-0.4-0.3-0.9-0.5-1.6-0.5c-0.7,0-1.3,0.1-1.7,0.3c-0.5,0.2-0.9,0.5-1.3,0.9
		c-0.3,0.4-0.6,0.8-0.8,1.3c-0.2,0.5-0.4,1-0.4,1.5l-1.2,8.8h-4L264.3,9.2z"/>
	<path class="st0" d="M285.4,18.7c0,0.6,0.1,1.1,0.3,1.6c0.2,0.5,0.5,0.9,0.8,1.2c0.3,0.3,0.7,0.6,1.2,0.8c0.5,0.2,1,0.3,1.5,0.3
		c1,0,1.9-0.2,2.6-0.6c0.7-0.4,1.4-0.9,2-1.6l2.6,2.2c-1.1,1.2-2.3,2-3.5,2.5c-1.2,0.5-2.5,0.7-3.8,0.7c-1.2,0-2.3-0.2-3.3-0.6
		c-1-0.4-1.9-1-2.5-1.7c-0.7-0.7-1.2-1.6-1.5-2.7c-0.3-1-0.4-2.2-0.2-3.5c0.2-1.3,0.6-2.4,1.2-3.5c0.6-1,1.4-1.9,2.2-2.7
		c0.9-0.7,1.9-1.3,3-1.7c1.1-0.4,2.3-0.6,3.5-0.6c2.3,0,4,0.8,5.1,2.3c1.2,1.5,1.6,3.7,1.2,6.5l-0.2,1.1H285.4z M294.1,15.7
		c0.2-1.2-0.1-2.1-0.7-2.8c-0.6-0.7-1.6-1-2.8-1c-1.2,0-2.2,0.3-3,1c-0.8,0.7-1.4,1.6-1.7,2.8H294.1z"/>
	<path class="st0" d="M315.2,25.3h-3.8l0.3-2.6h-0.1c-0.5,0.8-1.1,1.5-2,2.1c-0.9,0.6-2,0.9-3.3,0.9c-1.1,0-2-0.2-2.7-0.5
		c-0.7-0.3-1.2-0.8-1.6-1.4c-0.4-0.6-0.6-1.3-0.7-2c-0.1-0.8-0.1-1.6,0-2.4l1.4-10.2h4l-1.1,8.1c-0.1,0.4-0.1,0.9-0.2,1.5
		c0,0.5,0,1.1,0.1,1.5c0.1,0.5,0.4,0.9,0.7,1.2c0.3,0.3,0.9,0.5,1.6,0.5c0.7,0,1.3-0.1,1.7-0.3c0.5-0.2,0.9-0.5,1.3-0.9
		c0.3-0.4,0.6-0.8,0.8-1.3c0.2-0.5,0.4-1,0.4-1.5l1.2-8.8h4L315.2,25.3z"/>
	<path class="st0" d="M322,9.2h3.8l-0.3,2.4h0.1c0.7-1,1.6-1.7,2.6-2.1c1-0.4,2.1-0.7,3.3-0.7c1.2,0,2.3,0.2,3.2,0.7
		c0.9,0.4,1.7,1,2.2,1.8c0.6,0.8,1,1.7,1.2,2.7c0.2,1,0.2,2.1,0.1,3.3c-0.2,1.2-0.5,2.3-1,3.3c-0.5,1-1.2,1.9-2,2.7
		c-0.8,0.8-1.7,1.4-2.7,1.8c-1,0.4-2.1,0.7-3.2,0.7c-0.8,0-1.4-0.1-2-0.2c-0.6-0.2-1-0.4-1.5-0.6c-0.4-0.2-0.8-0.5-1-0.8
		c-0.3-0.3-0.5-0.6-0.7-0.8h-0.1l-1.4,9.7h-4L322,9.2z M334.2,17.3c0.1-0.6,0.1-1.2-0.1-1.8c-0.1-0.6-0.4-1.1-0.7-1.5
		c-0.3-0.4-0.8-0.8-1.3-1.1c-0.5-0.3-1.2-0.4-1.9-0.4c-0.7,0-1.4,0.1-2,0.4c-0.6,0.3-1.2,0.6-1.6,1.1c-0.5,0.4-0.9,1-1.2,1.5
		c-0.3,0.6-0.5,1.2-0.6,1.8c-0.1,0.6-0.1,1.2,0.1,1.8c0.1,0.6,0.4,1.1,0.7,1.5c0.3,0.4,0.8,0.8,1.3,1.1c0.5,0.3,1.2,0.4,1.9,0.4
		c0.7,0,1.4-0.1,2-0.4c0.6-0.3,1.2-0.6,1.6-1.1c0.5-0.4,0.8-1,1.1-1.5C333.9,18.5,334.1,17.9,334.2,17.3z"/>
</g>
</svg>
