<?xml version="1.0" encoding="utf-8"?>
<!-- Generator: Adobe Illustrator 24.1.1, SVG Export Plug-In . SVG Version: 6.00 Build 0)  -->
<svg version="1.1" id="レイヤー_1" xmlns="http://www.w3.org/2000/svg" xmlns:xlink="http://www.w3.org/1999/xlink" x="0px"
	 y="0px" viewBox="0 0 86 27" style="enable-background:new 0 0 86 27;" xml:space="preserve">
<style type="text/css">
	.st0{fill:#e72100;}
</style>
<g>
	<g>
		<g>
			<path class="st0" d="M12.4,20.1c-0.2,0-0.3,0.1-0.5,0.2c-0.2,0.1-0.3,0.3-0.3,0.5c-0.1,0.2,0,0.3,0,0.4c0.1,0.1,0.2,0.2,0.3,0.2
				l1.8,0l0.8-2.2l-1.1,1L12.4,20.1z"/>
			<path class="st0" d="M26.5,17.6l-0.8,0l-0.2,0l-0.8,0c-0.2,0-0.4,0.1-0.5,0.2c-0.1,0.1-0.2,0.2-0.3,0.3c-0.1,0.1-0.1,0.2-0.2,0.3
				l-0.3,0.9l-0.1,0.2L23,20.4c0,0.1-0.1,0.2,0,0.3c0,0.1,0,0.2,0.1,0.2c0.1,0.1,0.2,0.2,0.4,0.2l0.8,0h0.2l0.8,0
				c0.2,0,0.4-0.1,0.5-0.2c0.1-0.1,0.2-0.2,0.3-0.3c0.1-0.1,0.1-0.2,0.2-0.3l0.3-0.9l0.1-0.2l0.3-0.9c0-0.1,0.1-0.2,0-0.3
				c0-0.1,0-0.2-0.1-0.2C26.8,17.7,26.6,17.6,26.5,17.6z"/>
			<path class="st0" d="M55.6,20c-0.2,0-0.4,0.1-0.5,0.2c-0.2,0.1-0.3,0.3-0.4,0.5c-0.1,0.2-0.1,0.3,0,0.4c0.1,0.1,0.2,0.2,0.4,0.2
				l1.9,0l0.9-2.3L56.6,20L55.6,20z"/>
			<path class="st0" d="M84.3,9.1h-3.4c-0.1,0.5-0.7,4.7-1.3,5.3L77,14.3c0.5-1.1,1.3-4,1.3-4c0.1-0.4,0.1-0.8,0.2-1.2H45.1
				c-0.8,1.7-1.4,3.6-1.8,5.8h-3.4c0,0,0.6-2.7,2.2-5.8H8c-1.3,0-2.9,1.3-3.4,2.8L0.2,24.2C-0.4,25.7,0.3,27,1.7,27H78
				c1.3,0,2.9-1.3,3.4-2.8l4.3-12.4C86.4,10.3,85.7,9.1,84.3,9.1z M7.3,22.6l1.6-4.7l-1.4,1.3l-2.1,0l-1.1,3.4H2.6l2.8-8.3l1.6,0
				l-1.2,3.5l3.1,0l1.2-3.5l1.7,0L9,22.6H7.3z M11,22.6c-0.4,0-0.7-0.2-0.9-0.5c-0.2-0.3-0.2-0.8,0-1.3c0.2-0.5,0.5-1,0.9-1.3
				c0.4-0.4,0.8-0.5,1.2-0.5l2.4,0l0.1-0.3c0-0.1,0.1-0.2,0-0.3c0-0.1,0-0.2-0.1-0.3c0-0.1-0.1-0.2-0.2-0.2c-0.1,0-0.2-0.1-0.4-0.1
				l-2.5,0l0.5-1.4l2.2,0l0.4,0c0.5,0,0.8,0,1,0.1c0.2,0.1,0.4,0.2,0.5,0.4c0.1,0.3,0.2,0.6,0.1,0.9c0,0.3-0.1,0.7-0.3,1.2l-1.2,3.6
				H11z M15.4,22.6l2.9-8.5l1.4,0l-2.9,8.5H15.4z M19,22.6l-1.1-3l3.3-3.3l2,0l-3.5,3.2l1.3,3.1H19z M28.4,18.2l-0.4,1l-0.1,0.2
				l-0.4,1c-0.2,0.5-0.4,0.9-0.8,1.3c-0.3,0.3-0.7,0.5-1,0.6c-0.2,0.1-0.6,0.1-1.1,0.1h-0.7h-0.2H23c-0.5,0-0.8,0-1-0.1
				c-0.3-0.1-0.5-0.3-0.6-0.6c-0.1-0.4-0.1-0.8,0.1-1.3l0.4-1l0.1-0.2l0.4-1c0.2-0.5,0.4-0.9,0.8-1.3c0.3-0.3,0.7-0.6,1-0.7
				c0.2-0.1,0.6-0.1,1.1-0.1l0.7,0l0.2,0l0.8,0c0.5,0,0.8,0,1,0.1c0.3,0.1,0.5,0.3,0.6,0.6C28.6,17.4,28.5,17.8,28.4,18.2z
				 M31.9,22.6h-1.4l2.3-6.4l1.4,0l-0.3,0.9c0.2-0.2,0.3-0.4,0.5-0.5c0.2-0.1,0.3-0.2,0.6-0.3c0.1,0,0.2-0.1,0.3-0.1
				c0.1,0,0.2,0,0.3,0l1.5,0l-1.7,1.5l-1.6,0L31.9,22.6z M38.6,22.6H36c-0.6,0-1-0.3-1.3-0.9c-0.2-0.6-0.2-1.3,0.1-2.2
				c0.3-0.9,0.8-1.7,1.6-2.3c0.7-0.7,1.4-1,2-1l2.4,0l-0.5,1.3l-1.8,0c-0.2,0-0.4,0-0.6,0.1c-0.2,0-0.3,0.1-0.5,0.3
				c-0.3,0.2-0.6,0.6-0.7,1l3.1,0l-0.5,1.3l-2.5,0l-0.1-1.2c-0.3,0.5-0.7,1.7-0.5,2.1c0.1,0.1,0.2,0.2,0.3,0.3
				c0.1,0,0.3,0.1,0.6,0.1l1.8,0L38.6,22.6z M44.4,22.6h-1.5l1.5-4.2c0-0.1,0.1-0.2,0-0.3c0-0.1,0-0.2-0.1-0.3
				c-0.1-0.1-0.2-0.2-0.4-0.2l-0.8,0L43,16.3l-2.3,6.2h-1.5l2.3-6.4l2.8,0c0.5,0,0.9,0,1.1,0.1c0.3,0.1,0.5,0.3,0.6,0.7
				c0.1,0.4,0.1,0.8-0.1,1.3L44.4,22.6z M49.9,17.4l-1,0l-1.1,2.9c-0.1,0.3-0.2,0.6,0,0.7c0.2,0,2,0,2,0l-1.4,1.6h-1.3
				c-0.4,0-0.7-0.2-0.9-0.5C46,21.8,46,21.6,46,21.3c0-0.2,0.1-0.5,0.3-0.9l1.1-3l-0.9,0l0.5-1.4l0.9,0l0.8-2.3l1.5,0l-0.8,2.3
				l1.9,0L49.9,17.4z M59.8,17.6c0,0.3-0.2,0.7-0.4,1.3L58,22.6h-4c-0.4,0-0.8-0.2-1-0.5c-0.2-0.4-0.2-0.8,0-1.3
				c0.2-0.6,0.5-1,1-1.4c0.4-0.4,0.9-0.6,1.3-0.6l2.6,0l0.1-0.4c0-0.1,0.1-0.2,0.1-0.3c0-0.1,0-0.2-0.1-0.3
				c-0.1-0.1-0.1-0.2-0.2-0.3c-0.1,0-0.2-0.1-0.4-0.1l-3.1,0l1.7-1.4l1.6,0l0.5,0c0.5,0,0.9,0,1.1,0.1c0.2,0.1,0.4,0.3,0.5,0.5
				C59.8,16.9,59.8,17.2,59.8,17.6z M64,21c0.1,0.1,0.2,0.2,0.3,0.3c0.2,0,0.4,0.1,0.6,0.1l3.3,0l-1.8,1.2h-2.7
				c-0.6,0-1.1-0.3-1.3-1c-0.2-0.6-0.2-1.4,0.1-2.2c0.3-0.9,0.9-1.7,1.7-2.4c0.8-0.7,1.5-1,2.1-1l3.8,0l-1.8,1.4l-1.9,0
				c-0.2,0-0.4,0-0.6,0.1c-0.2,0-0.4,0.1-0.6,0.3C65,17.9,63.3,20.4,64,21z M69.7,22.6c-0.5,0-0.8-0.2-1-0.5c-0.2-0.4-0.2-0.8,0-1.4
				c0.2-0.6,0.5-1.1,1-1.4c0.4-0.4,0.9-0.6,1.3-0.6l2.7,0l0.1-0.4c0-0.1,0.1-0.2,0.1-0.3c0-0.1,0-0.2-0.1-0.3
				c-0.1-0.1-0.1-0.2-0.2-0.3c-0.1,0-0.2-0.1-0.4-0.1l-3.2,0l1.8-1.5l1.6,0l0.5,0c0.5,0,0.9,0,1.2,0.2c0.2,0.1,0.4,0.3,0.5,0.5
				c0.1,0.3,0.2,0.6,0.1,0.9c0,0.3-0.2,0.8-0.4,1.3l-1.5,3.8H69.7z M79.9,17.3l-1.7,0l-2,5.2h-1.5l2.6-6.6l1.6,0l-0.4,0.9
				c0.2-0.2,0.3-0.4,0.5-0.6c0.2-0.1,0.4-0.3,0.6-0.3c0.1,0,0.2-0.1,0.3-0.1c0.1,0,0.2,0,0.3,0l1.6,0L79.9,17.3z"/>
			<path class="st0" d="M71.3,19.9c-0.2,0-0.4,0.1-0.5,0.2c-0.2,0.1-0.3,0.3-0.4,0.5c-0.1,0.2-0.1,0.3,0,0.4
				c0.1,0.1,0.2,0.2,0.4,0.2l2,0l0.9-2.4l-1.3,1.1L71.3,19.9z"/>
		</g>
		<path class="st0" d="M56.2,2.3H53c-0.1,0-0.1,0-0.2,0.1l-4.4,3.5c-0.3,0.2-0.2,0.6,0.1,0.6h0.4l5.5-0.8c0.6-0.1,1.1-0.6,1.3-1.1
			l0.7-1.9C56.4,2.4,56.3,2.3,56.2,2.3z"/>
		<path class="st0" d="M77.5,2.5c0-0.1-0.1-0.2-0.2-0.2H57.8c-0.2,0-0.3,0.2-0.4,0.4l-0.1,1.9c0,0.6,0.3,1.1,0.9,1.1l2.4,0.8
			c0.2,0.1,0.4,0.1,0.5,0.1H76c1.1,0,2.1-1.2,1.9-2.3L77.5,2.5z"/>
		<path class="st0" d="M46.8,6c2.3-3.3,5.8-5.2,9.5-5.1c0.4,0,0.7,0,1.1,0H78c0.3,0,0.5,0.2,0.6,0.5c0.2,1,0.6,3.5,0,7.7h2.4
			c0.7-4.8,0.2-7.6-0.1-8.6C80.8,0.2,80.5,0,80.3,0H56.8c-1.7,0-3,0.1-3.9,0.3c0,0,0,0,0,0C47.4,1.2,44,5.4,42.1,9.1h3
			C45.6,7.9,46.2,6.9,46.8,6z"/>
	</g>
</g>
</svg>
