<?xml version="1.0" encoding="utf-8"?>
<!-- Generator: Adobe Illustrator 24.1.1, SVG Export Plug-In . SVG Version: 6.00 Build 0)  -->
<svg version="1.1" id="レイヤー_1" xmlns="http://www.w3.org/2000/svg" xmlns:xlink="http://www.w3.org/1999/xlink" x="0px"
	 y="0px" viewBox="0 0 144 20" style="enable-background:new 0 0 144 20;" xml:space="preserve">
<style type="text/css">
	.st0{fill:#e72100;}
</style>
<g>
	<path class="st0" d="M13.1,1.2l1.3,2.2c-0.9,2-2.4,5.2-4.6,8.6c-1.8,2.7-3.8,5.5-6.5,7.6l-1.7-2L0,15C4.9,11.1,8,4.5,9.4,1.5
		c0.1-0.1,0.3-0.6,0.3-0.7L13.1,1.2z M12.6,2.2C11.8,3.9,7.9,12.5,2.4,17.1l1.2,1.5c4.7-4.4,7.6-9.9,9.9-14.9L12.6,2.2z M20.5,0.8
		l1.3,2.2c-2.3,7.5-2.7,10.8-1.3,14l-4.8,2.9l-1-2.4c-2.1-4.9,0.9-13.2,2-16.3L20.5,0.8z M15.5,17l0.7,1.8l3.4-2
		c-1-2.9-1.1-5.5,1.4-13.5l-0.9-1.4c-2,6.4-2.4,10-1.2,13.1L15.5,17z"/>
	<path class="st0" d="M38.2,18.7H22.9l-1.3-2.2l1.4-3.4h11.6l2.3-5.8h-9.2l-1.3-2.2l1.4-3.4h15.1l1.3,2.2L38.2,18.7z M22.6,16.5
		l0.9,1.5h14.3l5.5-13.7l-0.9-1.5l-5.5,13.7H22.6z M37.7,5.1H27.4l0.9,1.5h8.9L37.7,5.1z"/>
	<path class="st0" d="M48.4,13.3c3.9-1,7.5-4,10.3-7.9l2.4,1.8l1.3,2.2C54.8,19.3,47,19.6,42,19.7l-1.4-2.2l6.8-16.8h3.8l1.3,2.2
		L48.4,13.3z M42.6,19c4.6-0.2,11.8-0.5,18.9-9.4l-1-1.6c-7.2,8.7-14.5,9.3-18.9,9.5L42.6,19z M46,13.7c0.6-0.1,1-0.1,1.6-0.2
		l4.1-10.2l-0.9-1.5L46,13.7z"/>
	<path class="st0" d="M83,4.1l1.3,2.2c-7.8,11.3-15.8,12.5-21.5,13.4l-1.3-2.2l0.3-3.7c7.8-0.7,12.9-3,18.6-11.3L83,4.1z M82.4,4.9
		c-3.3,4.7-7.9,8.7-12.7,10.6c-2.8,1.1-5.8,1.6-7.3,1.8l1,1.6c5.7-0.8,12.9-2.3,20-12.4L82.4,4.9z M75,6.2l-3.2,3.2
		c-1.1-1-2.4-2-4.9-3l-1.5-2.3l2.7-2.9c0.5,0.2,3.2,1,5.5,2.8L75,6.2z M70.7,7c-0.5-0.4-1.6-1.3-3.9-2.3l0.7,1.1
		c1.4,0.6,3.4,1.7,4.5,2.6L74,6.4l-1-1.7L70.7,7z"/>
	<path class="st0" d="M82.4,14.7c0.1,0,0.6-0.1,0.8-0.1c2.8-0.5,5.3-1.4,8-3c-0.2-0.4-0.7-0.9-1.1-1.2c-2,1.2-2.9,1.6-3.5,1.8
		l-1.3-2.2l-1.2-2.5C89.4,5.3,92,2.4,93.9,0l3.6,0.4l1.2,1.9h4.8l1.3,2.2c-3.2,5.9-8.7,13-20.5,15.5L83,17.8L82.4,14.7z M84.9,19.2
		c12.2-2.9,16.4-9.9,19-14.4l-1-1.6C100.1,8.5,94.8,15,84,17.6L84.9,19.2z M92.5,5.5c-2,1.7-4.1,3-6.4,4.2l1,1.7
		c0.9-0.5,1.4-0.7,2.4-1.3c-0.2-0.1-0.4-0.2-1.2-0.6L91.6,7c0.4,0.2,0.7,0.3,1.3,0.7C93,7.6,93.7,7.1,93.8,7h3
		c0.4-0.5,0.7-0.9,1.1-1.5H92.5z M93.4,8c0.8,0.5,1.2,0.9,1.3,1.1c0.7-0.7,0.9-0.8,1.5-1.4h-2.3L93.4,8z M97.6,2.3l-0.7-1.1
		c-0.2,0.3-0.5,0.6-1,1.1H97.6z"/>
	<path class="st0" d="M102.5,17.7l-1.3-2.6c1.9-0.8,5-2.3,7.9-6h-2.3l-1.3-2.2l1.3-3.2h5.5c0.6-1.3,0.8-1.7,1.4-3.3l3.6,0l1.4,2.2
		c-0.1,0.2-0.4,0.9-0.5,1.1h4.7l1.3,2.2L122.8,9c-0.9,2.1-2.8,6.6-4.3,8.5c-1.7,2.2-3.7,2.3-4.7,2.3c-1.2,0-2.5-0.1-3.7-0.3
		l-1.3-2.2l0.3-0.8c-2.2,1.8-3.6,2.5-5.3,3.4L102.5,17.7z M118,6.9h-3.9c-1,1.8-4,6.9-10.7,10.4l1,1.7c2.5-1.4,2.9-1.7,5.2-3.6
		l0.5-1.6c0.5,0.1,0.7,0.1,0.9,0.2c2-2.2,2.6-3.1,4.1-5.7h2.3L118,6.9z M106.5,6.9l0.9,1.5h2.2c0.3-0.4,0.5-0.8,0.9-1.5H106.5z
		 M121.5,6.8c-0.9,2.1-2.8,6.6-4.3,8.5c-1.7,2.2-3.7,2.3-4.7,2.3c-0.8,0-1.8-0.1-2.5-0.2l0.8,1.4c0.6,0.1,2.1,0.3,3.3,0.3
		c1.9,0,3.1-0.6,4.5-2.8c0.9-1.3,3-6.2,3.4-7.3l1.1-2.8l-0.9-1.5L121.5,6.8z M115.4,9.1c-1.2,2.1-2.1,3.3-3.7,5.1
		c0.3,0,0.7,0.1,1.2,0.1c1.7,0,1.8,0,4.2-5.1H115.4z M117.3,3.6l0.4-0.8l-0.9-1.5c-0.4,0.8-0.5,1.2-1.1,2.3H117.3z"/>
	<path class="st0" d="M142.6,13H125l-1.3-2.2l1.4-3.6h17.6l1.3,2.2L142.6,13z M124.7,10.8l0.9,1.5h16.6l1-2.5l-0.9-1.5l-1,2.5H124.7
		z"/>
</g>
</svg>
